<svg width="100" height="100" viewBox="0 0 100 100" fill="none" xmlns="http://www.w3.org/2000/svg">
<g clip-path="url(#clip0_27_3)">
<path d="M17.912 29.8V73H16.056V24.296L51.384 68.136V25H53.24V73.704L17.912 29.8Z" fill="black"/>
<path d="M71.584 74.28C67.104 74.28 62.9867 73.192 59.232 71.016C55.4773 68.7973 52.4907 65.768 50.272 61.928C48.096 58.0453 47.008 53.6933 47.008 48.872C47.008 44.2213 48.1387 39.976 50.4 36.136C52.704 32.296 55.7547 29.2667 59.552 27.048C63.392 24.8293 67.4667 23.72 71.776 23.72C74.7627 23.72 77.1307 23.9973 78.88 24.552C80.6293 25.064 82.656 25.9813 84.96 27.304V29.672C82.784 28.1787 80.7573 27.1333 78.88 26.536C77.0453 25.896 74.7413 25.576 71.968 25.576C67.744 25.576 63.8827 26.664 60.384 28.84C56.928 30.9733 54.176 33.8533 52.128 37.48C50.1227 41.064 49.12 44.9253 49.12 49.064C49.12 53.2453 50.144 57.128 52.192 60.712C54.24 64.296 56.9493 67.1547 60.32 69.288C63.7333 71.3787 67.4027 72.424 71.328 72.424C74.144 72.424 76.5973 72.104 78.688 71.464C80.7787 70.7813 82.8693 69.736 84.96 68.328V70.696C82.912 71.9333 80.8 72.8293 78.624 73.384C76.4907 73.9813 74.144 74.28 71.584 74.28Z" fill="black"/>
</g>
<defs>
<clipPath id="clip0_27_3">
<rect width="100" height="100" fill="white"/>
</clipPath>
</defs>
</svg>
